<svg width="24" height="24" viewBox="0 0 24 24" fill="none" xmlns="http://www.w3.org/2000/svg">
<mask id="path-1-inside-1_3003_3073" fill="white">
<path d="M12.0004 3.25C7.16793 3.25 3.25043 7.1675 3.25043 12C3.25043 13.594 3.67593 15.0865 4.41943 16.3725C4.50443 16.519 4.52593 16.6935 4.47943 16.8565L3.42143 20.5775L7.14143 19.5195C7.22201 19.4966 7.30638 19.49 7.38953 19.5003C7.47267 19.5106 7.5529 19.5376 7.62543 19.5795C8.95486 20.3491 10.4643 20.7529 12.0004 20.75C16.8329 20.75 20.7504 16.8325 20.7504 12C20.7504 7.1675 16.8329 3.25 12.0004 3.25ZM2.00043 12C2.00043 6.477 6.47743 2 12.0004 2C17.5234 2 22.0004 6.477 22.0004 12C22.0004 17.523 17.5234 22 12.0004 22C10.2754 22 8.65143 21.563 7.23393 20.793L3.11543 21.964C2.45593 22.1515 1.84693 21.542 2.03443 20.883L3.20543 16.764C2.41178 15.3017 1.99748 13.6638 2.00043 12ZM8.00043 10.125C8.00043 9.78 8.28043 9.5 8.62543 9.5H15.3754C15.4575 9.5 15.5388 9.51617 15.6146 9.54757C15.6904 9.57898 15.7593 9.62502 15.8174 9.68306C15.8754 9.74109 15.9214 9.80999 15.9529 9.88582C15.9843 9.96165 16.0004 10.0429 16.0004 10.125C16.0004 10.2071 15.9843 10.2883 15.9529 10.3642C15.9214 10.44 15.8754 10.5089 15.8174 10.5669C15.7593 10.625 15.6904 10.671 15.6146 10.7024C15.5388 10.7338 15.4575 10.75 15.3754 10.75H8.62543C8.28043 10.75 8.00043 10.47 8.00043 10.125ZM8.62543 13.25C8.45967 13.25 8.3007 13.3158 8.18349 13.4331C8.06628 13.5503 8.00043 13.7092 8.00043 13.875C8.00043 14.0408 8.06628 14.1997 8.18349 14.3169C8.3007 14.4342 8.45967 14.5 8.62543 14.5H13.3754C13.5412 14.5 13.7002 14.4342 13.8174 14.3169C13.9346 14.1997 14.0004 14.0408 14.0004 13.875C14.0004 13.7092 13.9346 13.5503 13.8174 13.4331C13.7002 13.3158 13.5412 13.25 13.3754 13.25H8.62543Z"/>
</mask>
<path d="M12.0004 3.25C7.16793 3.25 3.25043 7.1675 3.25043 12C3.25043 13.594 3.67593 15.0865 4.41943 16.3725C4.50443 16.519 4.52593 16.6935 4.47943 16.8565L3.42143 20.5775L7.14143 19.5195C7.22201 19.4966 7.30638 19.49 7.38953 19.5003C7.47267 19.5106 7.5529 19.5376 7.62543 19.5795C8.95486 20.3491 10.4643 20.7529 12.0004 20.75C16.8329 20.75 20.7504 16.8325 20.7504 12C20.7504 7.1675 16.8329 3.25 12.0004 3.25ZM2.00043 12C2.00043 6.477 6.47743 2 12.0004 2C17.5234 2 22.0004 6.477 22.0004 12C22.0004 17.523 17.5234 22 12.0004 22C10.2754 22 8.65143 21.563 7.23393 20.793L3.11543 21.964C2.45593 22.1515 1.84693 21.542 2.03443 20.883L3.20543 16.764C2.41178 15.3017 1.99748 13.6638 2.00043 12ZM8.00043 10.125C8.00043 9.78 8.28043 9.5 8.62543 9.5H15.3754C15.4575 9.5 15.5388 9.51617 15.6146 9.54757C15.6904 9.57898 15.7593 9.62502 15.8174 9.68306C15.8754 9.74109 15.9214 9.80999 15.9529 9.88582C15.9843 9.96165 16.0004 10.0429 16.0004 10.125C16.0004 10.2071 15.9843 10.2883 15.9529 10.3642C15.9214 10.44 15.8754 10.5089 15.8174 10.5669C15.7593 10.625 15.6904 10.671 15.6146 10.7024C15.5388 10.7338 15.4575 10.75 15.3754 10.75H8.62543C8.28043 10.75 8.00043 10.47 8.00043 10.125ZM8.62543 13.25C8.45967 13.25 8.3007 13.3158 8.18349 13.4331C8.06628 13.5503 8.00043 13.7092 8.00043 13.875C8.00043 14.0408 8.06628 14.1997 8.18349 14.3169C8.3007 14.4342 8.45967 14.5 8.62543 14.5H13.3754C13.5412 14.5 13.7002 14.4342 13.8174 14.3169C13.9346 14.1997 14.0004 14.0408 14.0004 13.875C14.0004 13.7092 13.9346 13.5503 13.8174 13.4331C13.7002 13.3158 13.5412 13.25 13.3754 13.25H8.62543Z" fill="#7A7A7A"/>
<path d="M4.41943 16.3725L1.82225 17.8741L1.82457 17.8781L4.41943 16.3725ZM4.47943 16.8565L1.59453 16.0335L1.59381 16.036L4.47943 16.8565ZM3.42143 20.5775L0.535811 19.757L-0.936731 24.936L4.24211 23.4631L3.42143 20.5775ZM7.14143 19.5195L7.96211 22.4051L7.96321 22.4048L7.14143 19.5195ZM7.62543 19.5795L9.12838 16.9831L9.12686 16.9822L7.62543 19.5795ZM12.0004 20.75V17.75L11.9948 17.75L12.0004 20.75ZM2.00043 12L5.00043 12.0053V12H2.00043ZM7.23393 20.793L8.66593 18.1568L7.59058 17.5727L6.41347 17.9074L7.23393 20.793ZM3.11543 21.964L3.93584 24.8496L3.9359 24.8496L3.11543 21.964ZM2.03443 20.883L4.91991 21.704L4.92009 21.7034L2.03443 20.883ZM3.20543 16.764L6.09109 17.5844L6.42555 16.4079L5.84211 15.3329L3.20543 16.764ZM15.3754 9.5V12.5V9.5ZM15.3754 10.75V7.75V10.75ZM8.62543 13.25V10.25V13.25ZM13.3754 14.5V11.5V14.5ZM12.0004 0.25C5.51108 0.25 0.250434 5.51065 0.250434 12H6.25043C6.25043 8.82435 8.82479 6.25 12.0004 6.25V0.25ZM0.250434 12C0.250434 14.135 0.821866 16.1437 1.82226 17.8741L7.01661 14.8709C6.53 14.0293 6.25043 13.053 6.25043 12H0.250434ZM1.82457 17.8781C1.49905 17.317 1.41849 16.6506 1.59453 16.0335L7.36434 17.6795C7.63338 16.7364 7.50982 15.721 7.0143 14.8669L1.82457 17.8781ZM1.59381 16.036L0.535811 19.757L6.30706 21.398L7.36506 17.677L1.59381 16.036ZM4.24211 23.4631L7.96211 22.4051L6.32075 16.6339L2.60076 17.6919L4.24211 23.4631ZM7.96321 22.4048C7.65705 22.492 7.33644 22.5167 7.02045 22.4776L7.7586 16.5231C7.27632 16.4633 6.78698 16.5011 6.31966 16.6342L7.96321 22.4048ZM7.02045 22.4776C6.70447 22.4384 6.39962 22.3361 6.12401 22.1768L9.12686 16.9822C8.70617 16.7391 8.24087 16.5829 7.7586 16.5231L7.02045 22.4776ZM6.12249 22.1759C7.91034 23.2108 9.94033 23.7539 12.0061 23.75L11.9948 17.75C10.9884 17.7519 9.99938 17.4873 9.12838 16.9831L6.12249 22.1759ZM12.0004 23.75C18.4898 23.75 23.7504 18.4894 23.7504 12H17.7504C17.7504 15.1756 15.1761 17.75 12.0004 17.75V23.75ZM23.7504 12C23.7504 5.51065 18.4898 0.25 12.0004 0.25V6.25C15.1761 6.25 17.7504 8.82435 17.7504 12H23.7504ZM5.00043 12C5.00043 8.13385 8.13429 5 12.0004 5V-1C4.82058 -1 -0.999566 4.82015 -0.999566 12H5.00043ZM12.0004 5C15.8666 5 19.0004 8.13385 19.0004 12H25.0004C25.0004 4.82015 19.1803 -1 12.0004 -1V5ZM19.0004 12C19.0004 15.8661 15.8666 19 12.0004 19V25C19.1803 25 25.0004 19.1799 25.0004 12H19.0004ZM12.0004 19C10.7879 19 9.6548 18.694 8.66593 18.1568L5.80194 23.4292C7.64807 24.432 9.76297 25 12.0004 25V19ZM6.41347 17.9074L2.29497 19.0784L3.9359 24.8496L8.0544 23.6786L6.41347 17.9074ZM2.29503 19.0784C3.8967 18.623 5.37551 20.1027 4.91991 21.704L-0.851045 20.062C-1.68164 22.9813 1.01517 25.68 3.93584 24.8496L2.29503 19.0784ZM4.92009 21.7034L6.09109 17.5844L0.31978 15.9436L-0.85122 20.0626L4.92009 21.7034ZM5.84211 15.3329C5.28775 14.3116 4.99837 13.1675 5.00043 12.0053L-0.999562 11.9947C-1.0034 14.1601 -0.464189 16.2919 0.568755 18.1951L5.84211 15.3329ZM11.0004 10.125C11.0004 11.4369 9.93729 12.5 8.62543 12.5V6.5C6.62358 6.5 5.00043 8.12315 5.00043 10.125H11.0004ZM8.62543 12.5H15.3754V6.5H8.62543V12.5ZM15.3754 12.5C15.0635 12.5 14.7547 12.4386 14.4666 12.3192L16.7627 6.77594C16.3229 6.59376 15.8515 6.5 15.3754 6.5V12.5ZM14.4666 12.3192C14.1784 12.1999 13.9166 12.0249 13.6961 11.8044L17.9387 7.56174C17.6021 7.22511 17.2025 6.9581 16.7627 6.77594L14.4666 12.3192ZM13.6961 11.8044C13.4755 11.5838 13.3006 11.322 13.1812 11.0339L18.7245 8.73777C18.5423 8.29798 18.2753 7.89836 17.9387 7.56174L13.6961 11.8044ZM13.1812 11.0339C13.0619 10.7457 13.0004 10.4369 13.0004 10.125H19.0004C19.0004 9.64896 18.9067 9.17758 18.7245 8.73777L13.1812 11.0339ZM13.0004 10.125C13.0004 9.81312 13.0619 9.50428 13.1812 9.21613L18.7245 11.5122C18.9067 11.0724 19.0004 10.601 19.0004 10.125H13.0004ZM13.1812 9.21613C13.3006 8.92799 13.4755 8.66617 13.6961 8.44562L17.9387 12.6883C18.2753 12.3516 18.5423 11.952 18.7245 11.5122L13.1812 9.21613ZM13.6961 8.44562C13.9166 8.22507 14.1784 8.05014 14.4666 7.93079L16.7627 13.4741C17.2025 13.2919 17.6021 13.0249 17.9387 12.6883L13.6961 8.44562ZM14.4666 7.93079C14.7547 7.81143 15.0635 7.75 15.3754 7.75V13.75C15.8515 13.75 16.3229 13.6562 16.7627 13.4741L14.4666 7.93079ZM15.3754 7.75H8.62543V13.75H15.3754V7.75ZM8.62543 7.75C9.93729 7.75 11.0004 8.81315 11.0004 10.125H5.00043C5.00043 12.1269 6.62358 13.75 8.62543 13.75V7.75ZM8.62543 10.25C7.66403 10.25 6.742 10.6319 6.06217 11.3117L10.3048 15.5544C9.85941 15.9998 9.25531 16.25 8.62543 16.25V10.25ZM6.06217 11.3117C5.38235 11.9916 5.00043 12.9136 5.00043 13.875H11.0004C11.0004 14.5049 10.7502 15.109 10.3048 15.5544L6.06217 11.3117ZM5.00043 13.875C5.00043 14.8364 5.38235 15.7584 6.06217 16.4383L10.3048 12.1956C10.7502 12.641 11.0004 13.2451 11.0004 13.875H5.00043ZM6.06217 16.4383C6.742 17.1181 7.66403 17.5 8.62543 17.5V11.5C9.25531 11.5 9.85941 11.7502 10.3048 12.1956L6.06217 16.4383ZM8.62543 17.5H13.3754V11.5H8.62543V17.5ZM13.3754 17.5C14.3368 17.5 15.2589 17.1181 15.9387 16.4383L11.6961 12.1956C12.1415 11.7502 12.7456 11.5 13.3754 11.5V17.5ZM15.9387 16.4383C16.6185 15.7584 17.0004 14.8364 17.0004 13.875H11.0004C11.0004 13.2451 11.2507 12.641 11.6961 12.1956L15.9387 16.4383ZM17.0004 13.875C17.0004 12.9136 16.6185 11.9916 15.9387 11.3117L11.6961 15.5544C11.2507 15.109 11.0004 14.5049 11.0004 13.875H17.0004ZM15.9387 11.3117C15.2589 10.6319 14.3368 10.25 13.3754 10.25V16.25C12.7456 16.25 12.1415 15.9998 11.6961 15.5544L15.9387 11.3117ZM13.3754 10.25H8.62543V16.25H13.3754V10.25Z" fill="#7A7A7A" mask="url(#path-1-inside-1_3003_3073)"/>
</svg>
