<svg width="23" height="22" viewBox="0 0 23 22" fill="none" xmlns="http://www.w3.org/2000/svg">
<path d="M18.8962 5.60111C17.8986 4.22371 16.5323 3.15607 14.9545 2.52111C13.5636 1.95494 12.0548 1.73919 10.5609 1.89282C9.06706 2.04645 7.6338 2.56476 6.38719 3.40217C5.14058 4.23958 4.11881 5.37044 3.41171 6.69532C2.70461 8.0202 2.33385 9.49851 2.33203 11.0003V11.5136C2.41202 12.9474 2.82977 14.342 3.5512 15.5836C4.72935 17.6515 6.66555 19.18 8.95037 19.8461C9.7808 20.0708 10.6385 20.1788 11.4987 20.1669C12.0772 20.1696 12.6545 20.1143 13.222 20.0019C15.0945 19.6395 16.8072 18.7021 18.1217 17.3202C19.4361 15.9384 20.2869 14.181 20.5554 12.2928C20.6243 11.8653 20.661 11.4333 20.6654 11.0003C20.6733 9.05686 20.0527 7.16296 18.8962 5.60111ZM17.0629 6.30694L16.082 8.92861L14.597 9.33194L12.4154 7.78278V6.08694L14.6979 4.42778C15.6241 4.87442 16.4432 5.51534 17.0995 6.30694H17.0629ZM13.332 10.6978L12.617 12.8336H10.3712L9.66537 10.6978L11.4987 9.38694L13.332 10.6978ZM11.4987 3.66694C11.8394 3.67077 12.1794 3.69834 12.5162 3.74944L11.4987 4.48278L10.4812 3.74944C10.818 3.69834 11.158 3.67077 11.4987 3.66694ZM4.97203 7.67278L5.3387 8.88278L4.30286 9.60694C4.43299 8.93373 4.65831 8.28247 4.97203 7.67278ZM6.22786 16.0786L7.49287 16.1244L7.83203 17.3436C7.243 16.9958 6.70344 16.5703 6.22786 16.0786ZM7.83203 14.3003L4.94453 14.1994C4.58021 13.484 4.33852 12.7124 4.22953 11.9169L6.51203 10.3219L7.83203 10.8903L8.64787 13.4203L7.83203 14.3003ZM8.62036 9.23111L7.19037 8.58944L6.3562 5.83944C6.91845 5.2652 7.57204 4.78818 8.29037 4.42778L10.582 6.08694V7.78278L8.62036 9.23111ZM12.4154 18.2694C11.6111 18.3648 10.7967 18.3277 10.0045 18.1594L9.2437 15.4828L10.0045 14.6669H12.8187L13.4329 15.5836L12.4154 18.2694ZM14.6245 17.6278L15.0462 16.5003L16.2929 16.5644C15.78 16.9964 15.2092 17.3543 14.597 17.6278H14.6245ZM17.7962 14.7678L14.9454 14.6669L14.2945 13.6586L15.1104 11.1286L16.4945 10.7528L18.6579 12.5861C18.4835 13.3573 18.1831 14.0944 17.7687 14.7678H17.7962ZM17.842 9.42361L18.282 8.25028C18.5401 8.87334 18.7039 9.53141 18.7679 10.2028L17.842 9.42361Z" fill="#7A7A7A"/>
</svg>
