<svg width="23" height="22" viewBox="0 0 23 22" fill="none" xmlns="http://www.w3.org/2000/svg">
<path d="M19.75 9.92959V17.8745C19.75 18.2392 19.6051 18.5889 19.3473 18.8468C19.0894 19.1046 18.7397 19.2495 18.375 19.2495H14.9375C14.5728 19.2495 14.2231 19.1046 13.9652 18.8468C13.7074 18.5889 13.5625 18.2392 13.5625 17.8745V14.437C13.5625 14.2547 13.4901 14.0798 13.3611 13.9509C13.2322 13.8219 13.0573 13.7495 12.875 13.7495H10.125C9.94266 13.7495 9.7678 13.8219 9.63886 13.9509C9.50993 14.0798 9.4375 14.2547 9.4375 14.437V17.8745C9.4375 18.2392 9.29263 18.5889 9.03477 18.8468C8.77691 19.1046 8.42717 19.2495 8.0625 19.2495H4.625C4.26033 19.2495 3.91059 19.1046 3.65273 18.8468C3.39487 18.5889 3.25 18.2392 3.25 17.8745V9.92959C3.24997 9.73929 3.28944 9.55106 3.36592 9.3768C3.4424 9.20254 3.55422 9.04606 3.6943 8.91725L10.5693 2.43069L10.5787 2.42123C10.8319 2.19104 11.1617 2.06348 11.5039 2.06348C11.846 2.06348 12.1759 2.19104 12.429 2.42123C12.4319 2.4246 12.4351 2.42775 12.4384 2.43069L19.3134 8.91725C19.4521 9.04674 19.5625 9.20353 19.6376 9.37775C19.7128 9.55198 19.751 9.73986 19.75 9.92959Z" fill="#FF5033"/>
</svg>
