<svg width="25" height="24" viewBox="0 0 25 24" fill="none" xmlns="http://www.w3.org/2000/svg">
<path fill-rule="evenodd" clip-rule="evenodd" d="M16.5 9C16.5 10.0609 16.0786 11.0783 15.3284 11.8284C14.5783 12.5786 13.5609 13 12.5 13C11.4391 13 10.4217 12.5786 9.67157 11.8284C8.92143 11.0783 8.5 10.0609 8.5 9C8.5 7.93913 8.92143 6.92172 9.67157 6.17157C10.4217 5.42143 11.4391 5 12.5 5C13.5609 5 14.5783 5.42143 15.3284 6.17157C16.0786 6.92172 16.5 7.93913 16.5 9ZM14.5 9C14.5 9.53043 14.2893 10.0391 13.9142 10.4142C13.5391 10.7893 13.0304 11 12.5 11C11.9696 11 11.4609 10.7893 11.0858 10.4142C10.7107 10.0391 10.5 9.53043 10.5 9C10.5 8.46957 10.7107 7.96086 11.0858 7.58579C11.4609 7.21071 11.9696 7 12.5 7C13.0304 7 13.5391 7.21071 13.9142 7.58579C14.2893 7.96086 14.5 8.46957 14.5 9Z" fill="#7A7A7A"/>
<path fill-rule="evenodd" clip-rule="evenodd" d="M12.5 1C6.425 1 1.5 5.925 1.5 12C1.5 18.075 6.425 23 12.5 23C18.575 23 23.5 18.075 23.5 12C23.5 5.925 18.575 1 12.5 1ZM3.5 12C3.5 14.09 4.213 16.014 5.408 17.542C6.24723 16.4399 7.3299 15.5467 8.57143 14.9323C9.81297 14.3179 11.1797 13.9988 12.565 14C13.9323 13.9987 15.2819 14.3095 16.5109 14.9088C17.7399 15.508 18.816 16.3799 19.657 17.458C20.5234 16.3216 21.1068 14.9952 21.3589 13.5886C21.611 12.182 21.5244 10.7355 21.1065 9.36898C20.6886 8.00243 19.9512 6.75505 18.9555 5.73004C17.9598 4.70503 16.7343 3.93186 15.3804 3.47451C14.0265 3.01716 12.5832 2.88877 11.1699 3.09997C9.75652 3.31117 8.41379 3.85589 7.25277 4.68905C6.09175 5.52222 5.14581 6.61987 4.49323 7.8912C3.84065 9.16252 3.50018 10.571 3.5 12ZM12.5 21C10.4339 21.0031 8.43027 20.2923 6.828 18.988C7.47293 18.0647 8.33134 17.3109 9.33019 16.7907C10.329 16.2705 11.4388 15.9992 12.565 16C13.6772 15.9991 14.7735 16.2636 15.7629 16.7714C16.7524 17.2793 17.6064 18.0159 18.254 18.92C16.6393 20.2667 14.6026 21.0029 12.5 21Z" fill="#7A7A7A"/>
</svg>
