<svg width="22" height="22" viewBox="0 0 22 22" fill="none" xmlns="http://www.w3.org/2000/svg">
<g clip-path="url(#clip0_3003_3082)">
<path d="M16.1445 14.2234C17.4759 12.4066 18.0723 10.1541 17.8142 7.91646C17.5561 5.67887 16.4627 3.62122 14.7527 2.15519C13.0427 0.689149 10.8422 -0.0771628 8.59143 0.0095628C6.34067 0.0962884 4.20566 1.02966 2.61352 2.62293C1.02139 4.2162 0.0895509 6.35189 0.00443586 8.6027C-0.0806791 10.8535 0.687207 13.0535 2.15447 14.7624C3.62173 16.4714 5.68015 17.5634 7.91793 17.8198C10.1557 18.0763 12.4078 17.4783 14.2237 16.1456H14.2223C14.2626 16.2006 14.3075 16.2533 14.357 16.3038L19.6508 21.5975C19.9086 21.8555 20.2584 22.0005 20.6231 22.0007C20.9879 22.0008 21.3377 21.856 21.5957 21.5982C21.8537 21.3404 21.9987 20.9906 21.9989 20.6259C21.999 20.2611 21.8542 19.9113 21.5964 19.6533L16.3027 14.3595C16.2535 14.3097 16.2007 14.2651 16.1445 14.2234ZM16.4993 8.93788C16.4993 9.931 16.3037 10.9144 15.9236 11.8319C15.5436 12.7494 14.9865 13.5831 14.2843 14.2854C13.582 14.9876 12.7483 15.5447 11.8308 15.9247C10.9133 16.3048 9.9299 16.5004 8.93678 16.5004C7.94366 16.5004 6.96026 16.3048 6.04274 15.9247C5.12521 15.5447 4.29153 14.9876 3.58929 14.2854C2.88704 13.5831 2.32999 12.7494 1.94994 11.8319C1.56989 10.9144 1.37428 9.931 1.37428 8.93788C1.37428 6.93218 2.17104 5.00863 3.58929 3.59039C5.00753 2.17214 6.93108 1.37538 8.93678 1.37538C10.9425 1.37538 12.866 2.17214 14.2843 3.59039C15.7025 5.00863 16.4993 6.93218 16.4993 8.93788Z" fill="#7A7A7A"/>
</g>
<defs>
<clipPath id="clip0_3003_3082">
<rect width="22" height="22" fill="white"/>
</clipPath>
</defs>
</svg>
